# xmcd
#
# Track frame offsets: 
#        150
#        19012
#        39603
#        59136
#        75556
#        93010
#        111261
#        127775
#        148832
#        166126
#
# Disc length: 2454 seconds
#
# Revision: 0
# Processed by: cddbd v1.5.2PL0 Copyright (c) Steve Scherf et al.
# Submitted via: ExactAudioCopy v0.95b4
#
DISCID=7c09940a
DTITLE=Polly Gibbons - What's The Real Reason?
DYEAR=2006
DGENRE=Blues
TTITLE0=Toy Shop
TTITLE1=Are You Okay ?
TTITLE2=Pray
TTITLE3=Your Faith
TTITLE4=Colourfield
TTITLE5=Give and Take
TTITLE6=So Unreasonable
TTITLE7=Thought It Was About You
TTITLE8=The Game
TTITLE9=I'll Be Here
EXTD=
EXTT0=
EXTT1=
EXTT2=
EXTT3=
EXTT4=
EXTT5=
EXTT6=
EXTT7=
EXTT8=
EXTT9=
PLAYORDER=
